<svg xmlns="http://www.w3.org/2000/svg" viewBox="0 0 1600 900" role="img" aria-labelledby="title desc">
  <title id="title">Mau Forest now - degraded placeholder</title>
  <desc id="desc">Soft abstract placeholder illustration showing a degraded forest scene</desc>
  <defs>
    <linearGradient id="sky" x1="0%" y1="0%" x2="0%" y2="100%">
      <stop offset="0%" stop-color="#f5efe9"/>
      <stop offset="100%" stop-color="#e6d7c7"/>
    </linearGradient>
    <linearGradient id="ground" x1="0%" y1="0%" x2="100%" y2="0%">
      <stop offset="0%" stop-color="#c9b7a0"/>
      <stop offset="100%" stop-color="#b19d85"/>
    </linearGradient>
  </defs>
  <rect width="1600" height="900" fill="url(#sky)"/>
  <rect y="520" width="1600" height="380" fill="url(#ground)"/>
  <g fill="#7a6957" opacity="0.55">
    <circle cx="240" cy="540" r="190"/>
    <circle cx="520" cy="510" r="210"/>
    <circle cx="820" cy="560" r="240"/>
    <circle cx="1200" cy="520" r="230"/>
    <circle cx="1460" cy="570" r="190"/>
  </g>
  <g stroke="#4d3f35" stroke-width="18" stroke-linecap="round" stroke-linejoin="round" opacity="0.65">
    <path d="M240 520c-6 140-30 220-50 240"/>
    <path d="M520 500c-12 160-36 240-56 260"/>
    <path d="M820 550c-10 170-34 240-60 260"/>
    <path d="M1200 520c-8 150-34 230-54 250"/>
    <path d="M1460 560c-9 150-30 220-52 240"/>
  </g>
  <g fill="#d7c7b2" opacity="0.38">
    <rect x="300" y="640" width="60" height="160" rx="12"/>
    <rect x="620" y="660" width="64" height="150" rx="12"/>
    <rect x="920" y="650" width="58" height="160" rx="12"/>
    <rect x="1260" y="640" width="64" height="160" rx="12"/>
  </g>
  <text x="120" y="180" font-family="Segoe UI, Arial, sans-serif" font-size="72" fill="#3e332c" opacity="0.45">
    Mau Forest — now (degraded)
  </text>
</svg>
